<?xml version="1.0" encoding="utf-8"?>
<!-- Generator: Adobe Illustrator 25.2.0, SVG Export Plug-In . SVG Version: 6.00 Build 0)  -->
<svg version="1.1" id="Layer_1" xmlns="http://www.w3.org/2000/svg" xmlns:xlink="http://www.w3.org/1999/xlink" x="0px" y="0px"
	 viewBox="0 0 411 730" style="enable-background:new 0 0 411 730;" xml:space="preserve">
<style type="text/css">
	.st0{fill:#E8ECF7;stroke:#000000;stroke-miterlimit:10;}
	.st1{fill:#5C63AD;}
</style>
<rect class="st0" width="411" height="730"/>
<path class="st1" d="M0,0c0,0,0,91.33,0,94.32c2.36,1.5,4.72,2.96,7.15,4.32c24.54,13.93,52.83,20.91,81.02,17.29
	c13.66-1.76,27.03-5.95,39.06-12.7c11.9-6.72,21.41-16.29,31.58-25.27c5.15-4.55,10.54-8.88,16.59-12.2
	c6.75-3.72,14.06-5.62,21.74-6.25c8.11-0.66,16.26-0.2,24.37-0.83c6.82-0.53,13.4-1.96,19.68-4.65
	c22.28-9.54,36.04-30.82,39.8-53.99C275.28,0,0,0,0,0z"/>
<path class="st1" d="M411,729.16c0,0,0-97.83,0-101.03c-2.53-1.6-5.06-3.17-7.66-4.63c-26.28-14.92-56.59-22.4-86.79-18.52
	c-14.64,1.89-28.95,6.37-41.85,13.6c-12.75,7.19-22.93,17.45-33.83,27.07c-5.52,4.88-11.29,9.51-17.77,13.07
	c-7.23,3.99-15.06,6.02-23.29,6.7c-8.69,0.71-17.41,0.21-26.1,0.89c-7.3,0.57-14.35,2.1-21.08,4.99
	c-23.86,10.22-38.6,33.01-42.63,57.84C116.13,729.16,411,729.16,411,729.16z"/>
</svg>
