<?xml version="1.0" encoding="utf-8"?>
<!-- Generator: Adobe Illustrator 25.2.0, SVG Export Plug-In . SVG Version: 6.00 Build 0)  -->
<svg version="1.1" id="Layer_1" xmlns="http://www.w3.org/2000/svg" xmlns:xlink="http://www.w3.org/1999/xlink" x="0px" y="0px"
	 viewBox="0 0 100 100" style="enable-background:new 0 0 100 100;" xml:space="preserve">
<style type="text/css">
	.st0{fill:#1F1D57;}
	.st1{fill:#FAC0BC;}
	.st2{fill:#F69794;}
	.st3{fill:#333333;}
	.st4{fill:#3DBFB8;}
	.st5{fill:#FFFFFF;}
	.st6{fill:none;}
	.st7{font-family:'ArialRoundedMTBold';}
	.st8{font-size:4px;}
</style>
<path class="st0" d="M51.13,26.12l-0.81,5.06l-1.71-6.75c0,0,2.39-1.16,2.5-0.74C51.22,24.12,51.13,26.12,51.13,26.12z"/>
<polygon class="st1" points="37.56,37.02 36.83,45.77 44.55,45.4 43.66,37.65 "/>
<path class="st2" d="M44.08,41.33l-0.42-3.69l-6.09-0.63l-0.26,3.03C38.52,41.25,40.7,42.51,44.08,41.33z"/>
<g>
	<path class="st2" d="M48.82,31.12c-0.46,0.96-0.22,2.04,0.55,2.41c0.77,0.37,1.77-0.11,2.23-1.07c0.46-0.96,0.22-2.04-0.55-2.41
		C50.28,29.68,49.28,30.16,48.82,31.12z"/>
	<path class="st1" d="M48.87,35.56c0.55-1.24,0.88-2.57,1.06-3.74c0.04-0.25,0.1-0.5,0.15-0.74c0.24-1,0.3-2.06,0.14-3.18
		c-0.54-3.58-3.42-6.44-7-6.93c-4.83-0.67-9.09,2.91-9.39,7.65c-0.5-0.32-1.07-0.42-1.6-0.23c-1,0.37-1.44,1.7-0.97,2.95
		c0.47,1.26,1.66,1.97,2.67,1.6c0.14-0.05,0.27-0.12,0.38-0.21c0.16,4.06,3.26,7.38,7.23,7.57c1.94,0.09,3.74-0.59,5.15-1.77
		C47.59,37.87,48.44,36.58,48.87,35.56z"/>
	<path class="st2" d="M43.92,29.18c0.02,0.47,0.02,0.93,0.04,1.39c0.03,0.42,0.07,1.02,0.33,1.34c0.04,0.05,0.24,0.28,0.25,0.61
		c0.01,0.31-0.15,0.59-0.36,0.76c-0.42,0.35-0.97,0.39-1.42,0.28c0.46-0.08,0.9-0.24,1.16-0.54c0.12-0.15,0.2-0.32,0.17-0.47
		c-0.02-0.18-0.12-0.27-0.16-0.33c-0.13-0.17-0.28-0.35-0.35-0.92c-0.02-0.25-0.02-0.49,0-0.73C43.64,30.08,43.74,29.62,43.92,29.18
		z"/>
	<path class="st3" d="M41.18,29.8c-0.02,0.4-0.36,0.7-0.75,0.69c-0.4-0.02-0.7-0.36-0.69-0.75c0.02-0.4,0.36-0.7,0.75-0.69
		C40.9,29.07,41.2,29.4,41.18,29.8z"/>
	<path class="st3" d="M47.34,30.5c-0.02,0.4-0.36,0.7-0.75,0.69c-0.4-0.02-0.7-0.36-0.69-0.75c0.02-0.4,0.36-0.7,0.75-0.69
		C47.06,29.76,47.36,30.1,47.34,30.5z"/>
	<path class="st2" d="M39.98,34.68c0.73,0.64,1.69,1.14,2.63,1.25c1.02,0.13,1.93-0.18,2.8-0.72c-0.81,0.68-1.75,1.03-2.82,0.91
		C41.54,35.98,40.57,35.38,39.98,34.68z"/>
	<path class="st0" d="M42.09,28.18c-1.02-0.31-1.59-0.33-2.05-0.27c-1.01,0.14-1.58,0.58-1.94,0.74c0.43-0.78,1.08-1.2,1.87-1.3
		C40.83,27.23,41.67,27.62,42.09,28.18z"/>
	<path class="st0" d="M45.26,28.53c0.52-0.46,1.42-0.68,2.24-0.41c0.75,0.25,1.32,0.79,1.58,1.64c-0.32-0.22-0.79-0.77-1.75-1.1
		C46.89,28.52,46.32,28.42,45.26,28.53z"/>
</g>
<path class="st4" d="M45.41,42.28c0,0,7.27,0.92,9.11,2.42c1.85,1.5,10.73,23.53,10.73,23.53l-7.38,8.65L42.18,77
	c0,0-11.77,6.34-19.15,0.35c-7.38-6-3.58-26.88,0.69-31.38c4.27-4.5,11.88-4.38,11.88-4.38S42.53,46.43,45.41,42.28z"/>
<path class="st5" d="M31.34,53.24c0.26,1.2,0.42,2.42,0.53,3.64c0.06,0.61,0.09,1.23,0.12,1.84c0.02,0.61,0.03,1.23,0.02,1.84
	c-0.02,1.23-0.09,2.46-0.3,3.68c-0.21,1.21-0.51,2.43-1.07,3.53c0.38-1.17,0.57-2.37,0.7-3.58c0.13-1.21,0.18-2.42,0.2-3.64
	c0.03-1.22,0-2.43-0.04-3.65C31.46,55.68,31.4,54.46,31.34,53.24z"/>
<path class="st5" d="M53.08,52.43c0.33,1.79,0.68,3.57,1.04,5.34c0.37,1.78,0.74,3.55,1.17,5.31c0.42,1.76,0.9,3.51,1.47,5.22
	c0.29,0.86,0.61,1.7,0.98,2.52c0.37,0.82,0.81,1.62,1.39,2.31c-0.67-0.62-1.16-1.41-1.6-2.21c-0.43-0.81-0.8-1.65-1.12-2.5
	c-0.33-0.85-0.61-1.72-0.87-2.59c-0.26-0.87-0.49-1.76-0.71-2.64c-0.21-0.89-0.41-1.77-0.59-2.67c-0.17-0.89-0.34-1.79-0.49-2.69
	C53.46,56.05,53.23,54.24,53.08,52.43z"/>
<path class="st1" d="M56.73,71.9c-0.05-0.37-2.82-0.77-3.84-0.83c-0.77-0.04-5.89-0.21-7.63-0.29l0.13,0.45l-0.03,1.98l-0.29,1.31
	c1.53,0.1,5.26,0.24,6.04,0.4c1.04,0.21,2.84,0.99,2.84,0.99s0.75-0.17-0.2-0.58c-0.76-0.33-1.3-0.84-1.53-1.09
	c-0.13-0.15,0.01-0.41,0.11-0.38c2.59,0.68,2.86,0.79,2.86,0.79s3.05-0.02,0.02-0.7c-1.82-0.41-2.47-0.65-2.63-0.85
	c-0.07-0.09,0.05-0.38,0.16-0.39c1.57-0.1,4.4,0.46,3.62,0.09c-0.63-0.3-2.62-0.63-3.39-0.75c-0.05-0.01-0.12-0.3,0.09-0.31
	C54.57,71.6,56.78,72.24,56.73,71.9z"/>
<path class="st5" d="M31.47,67.93c0.64,0.15,1.28,0.26,1.92,0.4c1.29,0.23,2.58,0.44,3.87,0.62c1.3,0.17,2.59,0.33,3.89,0.45
	c1.3,0.13,2.61,0.24,3.9,0.31l0.17,0.01l0.04,0.15c0.11,0.43,0.18,0.86,0.24,1.29c0.05,0.43,0.08,0.87,0.08,1.31
	c0,0.44-0.04,0.87-0.11,1.31c-0.08,0.43-0.21,0.86-0.38,1.26l-0.01,0.04l-0.03,0.02l-1.42,0.96c-0.47,0.32-0.95,0.64-1.43,0.95
	c0.45-0.36,0.9-0.71,1.35-1.06l1.33-1.02c0.14-0.38,0.23-0.78,0.29-1.18c0.05-0.42,0.07-0.83,0.06-1.25
	c-0.01-0.42-0.06-0.84-0.11-1.26c-0.05-0.36-0.12-0.73-0.21-1.08c-0.62-0.02-1.2-0.06-1.81-0.1c-0.66-0.05-1.31-0.1-1.96-0.17
	c-1.31-0.13-2.61-0.3-3.91-0.51c-1.3-0.21-2.59-0.46-3.87-0.76c-0.64-0.16-1.27-0.32-1.9-0.52c-0.63-0.18-1.25-0.4-1.87-0.62
	C30.2,67.62,30.83,67.8,31.47,67.93z"/>
<path class="st0" d="M87.15,57.22H62.43c-0.76,0-1.44,0.46-1.73,1.16l-7.57,18.48H39.46c-0.38,0-0.69,0.31-0.69,0.69l0,0
	c0,0.38,0.31,0.69,0.69,0.69h39.46c0.73,0,1.39-0.43,1.69-1.09l7.96-17.74C89.03,58.38,88.28,57.22,87.15,57.22z"/>
<path class="st0" d="M51.28,21.33c0,0,2.42,0.08-0.12-1.97c-2.54-2.05-9.37-4.45-13.74-2.14c0,0-0.87-1.86-2.14-1.42
	c-1.26,0.44,0.82,1.72,0.82,1.72s-1.62-0.05-2.11,0.74c-0.36,0.59,0.62,0.61,1.17,0.58c-0.92,0.16-4.44,2.38-2.68,9.49
	c0.63-0.14,4.21-5.33,4.21-5.33s8.19,4.55,7.38,0.93c0,0,8.49,5.3,7.28,0.92C51.37,24.86,54.65,25.1,51.28,21.33z"/>
<path class="st0" d="M32.48,28.39c0,0,0.68-0.24,1.41,0.34c0.73,0.58,0.65,2.61,0.65,2.61s3.48,2.25,3.12-7.26
	c-0.39-10.11-2.91,0.81-2.91,0.81L32.48,28.39z"/>
<rect x="39.74" y="54.24" class="st6" width="7.84" height="3.28"/>
<text transform="matrix(1 0 0 1 39.7359 57.1474)" class="st0 st7 st8">CSI</text>
<g id="Layer_2_1_">
	<g id="Layer_1-2">
		<path class="st5" d="M71.02,65.48l-1.21,0.36c-0.08,0.03-0.13,0.12-0.11,0.2c0.01,0.02,0.01,0.03,0.02,0.05l2.51,3.51
			c0.06,0.08,0.17,0.1,0.25,0.04c0.03-0.02,0.05-0.05,0.06-0.08l1.42-3.79c0.02-0.05,0.01-0.1-0.02-0.15l-0.23-0.37
			c-0.05-0.08-0.15-0.1-0.23-0.05c-0.03,0.02-0.05,0.05-0.07,0.08l-1.15,3.23l-1.37-1.98c-0.05-0.07-0.03-0.17,0.04-0.22
			c0.01-0.01,0.02-0.01,0.04-0.02l0.36-0.13c0.08-0.03,0.13-0.12,0.1-0.21c0,0,0-0.01-0.01-0.01l-0.17-0.37
			C71.22,65.5,71.11,65.45,71.02,65.48z"/>
		<path class="st5" d="M73.23,64.8l-1.76,0.54c-0.07,0.02-0.11,0.09-0.09,0.16c0,0,0,0.01,0,0.01l0.2,0.49
			c0.02,0.06,0.08,0.08,0.14,0.06l0.41-0.16c0.06-0.02,0.13,0.01,0.16,0.07c0.01,0.03,0.01,0.06,0,0.09l-0.3,0.74
			c-0.02,0.06-0.09,0.09-0.15,0.07c-0.03-0.01-0.05-0.03-0.06-0.05l-0.1-0.19c-0.03-0.06-0.11-0.08-0.17-0.05c0,0,0,0,0,0
			l-0.11,0.06c-0.06,0.03-0.08,0.11-0.04,0.17c0,0,0,0,0,0.01l0.71,1.05c0.04,0.06,0.12,0.08,0.18,0.04
			c0.02-0.02,0.04-0.04,0.05-0.07l0.83-2.3c0.02-0.06-0.01-0.14-0.08-0.16c-0.03-0.01-0.06-0.01-0.08,0l-1.01,0.36
			c-0.06,0.02-0.12-0.01-0.14-0.07c0,0,0,0,0-0.01l0,0c-0.02-0.07,0.02-0.14,0.09-0.16l1.39-0.43c0.06-0.02,0.09-0.07,0.09-0.13
			l0-0.04c-0.01-0.07-0.07-0.12-0.14-0.11C73.25,64.79,73.24,64.79,73.23,64.8z"/>
		<path class="st5" d="M73.79,64.64l0.45-0.14c0.06-0.02,0.12,0.01,0.13,0.07c0.01,0.02,0.01,0.05,0,0.07l-0.2,0.55
			c-0.02,0.06-0.08,0.08-0.14,0.06c-0.02-0.01-0.04-0.02-0.05-0.04l-0.26-0.4c-0.03-0.05-0.02-0.12,0.03-0.15
			C73.77,64.64,73.78,64.64,73.79,64.64z"/>
	</g>
</g>
</svg>
